<svg id="visual" viewBox="0 0 900 600" width="900" height="600" xmlns="http://www.w3.org/2000/svg" xmlns:xlink="http://www.w3.org/1999/xlink" version="1.1"><path d="M0 75L18.8 70.2C37.7 65.3 75.3 55.7 112.8 51.7C150.3 47.7 187.7 49.3 225.2 51.8C262.7 54.3 300.3 57.7 337.8 55.3C375.3 53 412.7 45 450.2 47.7C487.7 50.3 525.3 63.7 562.8 69.5C600.3 75.3 637.7 73.7 675.2 71.5C712.7 69.3 750.3 66.7 787.8 64.7C825.3 62.7 862.7 61.3 881.3 60.7L900 60L900 0L881.3 0C862.7 0 825.3 0 787.8 0C750.3 0 712.7 0 675.2 0C637.7 0 600.3 0 562.8 0C525.3 0 487.7 0 450.2 0C412.7 0 375.3 0 337.8 0C300.3 0 262.7 0 225.2 0C187.7 0 150.3 0 112.8 0C75.3 0 37.7 0 18.8 0L0 0Z" fill="#690569" stroke-linecap="round" stroke-linejoin="miter"></path></svg>