<svg id="visual" viewBox="0 0 9999 800" width="9999" height="800" xmlns="http://www.w3.org/2000/svg" xmlns:xlink="http://www.w3.org/1999/xlink" version="1.1"><path d="M0 416L185.2 421.5C370.3 427 740.7 438 1111 486C1481.3 534 1851.7 619 2222 623C2592.3 627 2962.7 550 3333 551.8C3703.3 553.7 4073.7 634.3 4444 648.7C4814.3 663 5184.7 611 5555 546C5925.3 481 6295.7 403 6666 428.2C7036.3 453.3 7406.7 581.7 7777 614.5C8147.3 647.3 8517.7 584.7 8888 541.5C9258.3 498.3 9628.7 474.7 9813.8 462.8L9999 451L9999 801L9813.8 801C9628.7 801 9258.3 801 8888 801C8517.7 801 8147.3 801 7777 801C7406.7 801 7036.3 801 6666 801C6295.7 801 5925.3 801 5555 801C5184.7 801 4814.3 801 4444 801C4073.7 801 3703.3 801 3333 801C2962.7 801 2592.3 801 2222 801C1851.7 801 1481.3 801 1111 801C740.7 801 370.3 801 185.2 801L0 801Z" fill="#79017E" stroke-linecap="round" stroke-linejoin="miter"></path></svg>